<svg width="24" height="21" viewBox="0 0 24 21" fill="none" xmlns="http://www.w3.org/2000/svg">
<path d="M23 1.48418C22.0424 2.15965 20.9821 2.67629 19.86 3.01418C19.2577 2.32169 18.4573 1.83087 17.567 1.6081C16.6767 1.38534 15.7395 1.44137 14.8821 1.76863C14.0247 2.09589 13.2884 2.67858 12.773 3.43789C12.2575 4.19721 11.9877 5.09651 12 6.01418V7.01418C10.2426 7.05974 8.50127 6.66999 6.93101 5.87962C5.36074 5.08926 4.01032 3.92281 3 2.48418C3 2.48418 -1 11.4842 8 15.4842C5.94053 16.8821 3.48716 17.5831 1 17.4842C10 22.4842 21 17.4842 21 5.98418C20.9991 5.70563 20.9723 5.42777 20.92 5.15418C21.9406 4.14767 22.6608 2.87689 23 1.48418V1.48418Z" stroke="#02897A" stroke-width="2" stroke-linecap="round" stroke-linejoin="round"/>
</svg>
